<svg width="30" height="30" viewBox="0 0 30 30" fill="none" xmlns="http://www.w3.org/2000/svg">
<path d="M15 27.4999C13.358 27.5015 11.7318 27.1793 10.2145 26.5517C8.69721 25.9241 7.31856 25.0034 6.1575 23.8424C4.99644 22.6813 4.07576 21.3027 3.44816 19.7854C2.82056 18.2681 2.49836 16.6419 2.50001 14.9999V14.7499C2.55002 12.2991 3.31912 9.91714 4.71174 7.89991C6.10436 5.88268 8.05907 4.31917 10.333 3.4037C12.6068 2.48824 15.0996 2.26119 17.5015 2.75076C19.9033 3.24033 22.1084 4.42495 23.8425 6.15738C25.5921 7.90557 26.7838 10.1335 27.2668 12.5592C27.7497 14.985 27.5021 17.4994 26.5554 19.7844C25.6087 22.0694 24.0054 24.0222 21.9485 25.3956C19.8915 26.769 17.4733 27.5013 15 27.4999ZM15 16.7624L18.2375 19.9999L20 18.2374L16.7625 14.9999L20 11.7624L18.2375 9.99988L15 13.2374L11.7625 9.99988L10 11.7624L13.2375 14.9999L10 18.2374L11.7625 19.9999L15 16.7636V16.7624Z" fill="#ED9B04"/>
</svg>
