<svg width="17" height="18" viewBox="0 0 17 18" fill="none" xmlns="http://www.w3.org/2000/svg">
<g clip-path="url(#clip0_48_1291)">
<path d="M17 9.06992C17 11.3591 16.1045 13.5546 14.5104 15.1733C12.9163 16.792 10.7543 17.7014 8.5 17.7014C6.24566 17.7014 4.08365 16.792 2.48959 15.1733C0.895533 13.5546 0 11.3591 0 9.06992C0 6.78072 0.895533 4.58528 2.48959 2.96657C4.08365 1.34786 6.24566 0.438477 8.5 0.438477C10.7543 0.438477 12.9163 1.34786 14.5104 2.96657C16.1045 4.58528 17 6.78072 17 9.06992ZM8.65512 5.8245C9.67619 5.8245 10.3987 6.50746 10.4922 7.45584H11.8681V7.36089C11.7683 5.72308 10.4359 4.58589 8.64875 4.58589C6.4515 4.58589 5.17544 6.07157 5.17544 8.51103V9.66873C5.17544 12.1147 6.42706 13.5561 8.64981 13.5561C10.4295 13.5561 11.7629 12.4556 11.8681 10.8944V10.7941H10.4922C10.3987 11.6917 9.69531 12.324 8.65512 12.324C7.35462 12.324 6.60769 11.3626 6.60769 9.66873V8.52506C6.60769 6.81711 7.36737 5.8245 8.65512 5.8245Z" fill="black"/>
</g>
<defs>
<clipPath id="clip0_48_1291">
<rect width="17" height="17.2629" fill="white" transform="translate(0 0.438477)"/>
</clipPath>
</defs>
</svg>
