<svg width="17" height="18" viewBox="0 0 17 18" fill="none" xmlns="http://www.w3.org/2000/svg">
<g clip-path="url(#clip0_48_1357)">
<path fill-rule="evenodd" clip-rule="evenodd" d="M0 9.11811C0 13.4094 3.06921 16.9778 7.08333 17.7014V11.4673H4.95833V9.06992H7.08333V7.15158C7.08333 4.99372 8.45254 3.79539 10.3891 3.79539C11.0025 3.79539 11.6641 3.89105 12.2775 3.98672V6.19277H11.1917C10.1525 6.19277 9.91667 6.72001 9.91667 7.39182V9.06992H12.1833L11.8058 11.4673H9.91667V17.7014C13.9308 16.9778 17 13.4101 17 9.11811C17 4.34421 13.175 0.438477 8.5 0.438477C3.825 0.438477 0 4.34421 0 9.11811Z" fill="black"/>
</g>
<defs>
<clipPath id="clip0_48_1357">
<rect width="17" height="17.2629" fill="white" transform="translate(0 0.438477)"/>
</clipPath>
</defs>
</svg>
