<svg width="17" height="18" viewBox="0 0 17 18" fill="none" xmlns="http://www.w3.org/2000/svg">
<g clip-path="url(#clip0_48_1361)">
<path fill-rule="evenodd" clip-rule="evenodd" d="M5.28772 0.808215C6.11859 0.769374 6.38351 0.760742 8.50001 0.760742C10.6165 0.760742 10.8814 0.770093 11.7116 0.808215C12.5418 0.846337 13.1084 0.980844 13.6043 1.17577C14.1235 1.37501 14.5945 1.68646 14.9841 2.08927C15.3808 2.48415 15.6868 2.96176 15.8823 3.48972C16.0749 3.99322 16.2067 4.56865 16.2449 5.41021C16.2832 6.25538 16.2917 6.52439 16.2917 8.6729C16.2917 10.8221 16.2825 11.0911 16.2449 11.9349C16.2074 12.7764 16.0749 13.3519 15.8823 13.8554C15.6868 14.3834 15.3802 14.8618 14.9841 15.2573C14.5945 15.6601 14.1235 15.9708 13.6043 16.1693C13.1084 16.365 12.5418 16.4987 11.713 16.5376C10.8814 16.5764 10.6165 16.5851 8.50001 16.5851C6.38351 16.5851 6.11859 16.5757 5.28772 16.5376C4.45897 16.4995 3.8923 16.365 3.39647 16.1693C2.8765 15.9708 2.40538 15.6595 2.01593 15.2573C1.61953 14.8621 1.31277 14.384 1.11705 13.8561C0.925093 13.3526 0.793343 12.7771 0.755093 11.9356C0.716843 11.0904 0.708344 10.8214 0.708344 8.6729C0.708344 6.52367 0.717552 6.25466 0.755093 5.41165C0.792635 4.56865 0.925093 3.99322 1.11705 3.48972C1.31306 2.96182 1.62005 2.48366 2.01663 2.08855C2.40554 1.68611 2.87618 1.37461 3.39576 1.17577C3.89159 0.980844 4.45826 0.847057 5.28701 0.808215H5.28772ZM11.6486 2.2324C10.8269 2.19428 10.5804 2.18637 8.50001 2.18637C6.41963 2.18637 6.17313 2.19428 5.35147 2.2324C4.59143 2.26765 4.17918 2.3964 3.90434 2.50501C3.54097 2.64887 3.28101 2.81934 3.0083 3.09627C2.74979 3.35165 2.55085 3.66255 2.42605 4.00616C2.31909 4.28525 2.1923 4.70387 2.15759 5.47567C2.12005 6.31004 2.11226 6.56035 2.11226 8.6729C2.11226 10.7854 2.12005 11.0358 2.15759 11.8701C2.1923 12.6419 2.31909 13.0605 2.42605 13.3396C2.55072 13.6827 2.74976 13.9942 3.0083 14.2495C3.25976 14.5121 3.56647 14.7142 3.90434 14.8408C4.17918 14.9494 4.59143 15.0781 5.35147 15.1134C6.17313 15.1515 6.41893 15.1594 8.50001 15.1594C10.5811 15.1594 10.8269 15.1515 11.6486 15.1134C12.4086 15.0781 12.8208 14.9494 13.0957 14.8408C13.4591 14.6969 13.719 14.5265 13.9917 14.2495C14.2503 13.9942 14.4493 13.6827 14.574 13.3396C14.6809 13.0605 14.8077 12.6419 14.8424 11.8701C14.88 11.0358 14.8878 10.7854 14.8878 8.6729C14.8878 6.56035 14.88 6.31004 14.8424 5.47567C14.8077 4.70387 14.6809 4.28525 14.574 4.00616C14.4323 3.63717 14.2644 3.37319 13.9917 3.09627C13.7402 2.83378 13.434 2.63176 13.0957 2.50501C12.8208 2.3964 12.4086 2.26765 11.6486 2.2324V2.2324ZM7.5048 11.112C8.0606 11.3469 8.67949 11.3787 9.25575 11.2017C9.83202 11.0248 10.3299 10.6502 10.6644 10.1419C10.9989 9.63356 11.1492 9.0231 11.0897 8.41475C11.0302 7.8064 10.7646 7.2379 10.3381 6.80635C10.0663 6.53049 9.73762 6.31926 9.37574 6.18787C9.01387 6.05648 8.62781 6.0082 8.24536 6.04651C7.86291 6.08481 7.49358 6.20875 7.16395 6.4094C6.83433 6.61004 6.55262 6.88241 6.3391 7.20688C6.12558 7.53136 5.98556 7.89987 5.92912 8.28589C5.87269 8.67191 5.90124 9.06584 6.01273 9.43931C6.12421 9.81278 6.31585 10.1565 6.57385 10.4457C6.83186 10.735 7.1498 10.9625 7.5048 11.112ZM5.66809 5.79719C6.03999 5.41955 6.48149 5.11998 6.96739 4.9156C7.45329 4.71122 7.97407 4.60603 8.50001 4.60603C9.02594 4.60603 9.54673 4.71122 10.0326 4.9156C10.5185 5.11998 10.96 5.41955 11.3319 5.79719C11.7038 6.17483 11.9988 6.62316 12.2001 7.11658C12.4014 7.60999 12.5049 8.13883 12.5049 8.6729C12.5049 9.20697 12.4014 9.73581 12.2001 10.2292C11.9988 10.7226 11.7038 11.171 11.3319 11.5486C10.5809 12.3113 9.56218 12.7398 8.50001 12.7398C7.43783 12.7398 6.41916 12.3113 5.66809 11.5486C4.91702 10.7859 4.49507 9.7515 4.49507 8.6729C4.49507 7.5943 4.91702 6.55987 5.66809 5.79719V5.79719ZM13.3932 5.21169C13.4853 5.12341 13.5591 5.01725 13.6101 4.8995C13.6612 4.78175 13.6884 4.6548 13.6903 4.52616C13.6921 4.39752 13.6685 4.26982 13.6209 4.1506C13.5733 4.03139 13.5026 3.92309 13.413 3.83213C13.3234 3.74116 13.2167 3.66936 13.0994 3.621C12.982 3.57263 12.8562 3.54868 12.7295 3.55056C12.6028 3.55243 12.4778 3.5801 12.3619 3.63192C12.2459 3.68374 12.1414 3.75865 12.0544 3.85224C11.8854 4.03424 11.7928 4.27598 11.7964 4.52616C11.8 4.77633 11.8994 5.01524 12.0737 5.19216C12.2479 5.36907 12.4832 5.47008 12.7295 5.47373C12.9759 5.47737 13.2139 5.38338 13.3932 5.21169V5.21169Z" fill="black"/>
</g>
<defs>
<clipPath id="clip0_48_1361">
<rect width="17" height="17.2629" fill="white" transform="translate(0 0.0415039)"/>
</clipPath>
</defs>
</svg>
