<svg width="40" height="40" viewBox="0 0 40 40" fill="none" xmlns="http://www.w3.org/2000/svg">
<path fill-rule="evenodd" clip-rule="evenodd" d="M20 1.66675C9.87502 1.66675 1.66669 9.87508 1.66669 20.0001C1.66669 30.1251 9.87502 38.3334 20 38.3334C30.125 38.3334 38.3334 30.1251 38.3334 20.0001C38.3334 9.87508 30.125 1.66675 20 1.66675ZM23.6784 14.5117C23.982 14.1974 24.1499 13.7764 24.1461 13.3394C24.1423 12.9024 23.9671 12.4844 23.6581 12.1754C23.349 11.8664 22.931 11.6911 22.494 11.6873C22.057 11.6835 21.636 11.8515 21.3217 12.1551L14.655 18.8217C14.3426 19.1343 14.167 19.5581 14.167 20.0001C14.167 20.442 14.3426 20.8659 14.655 21.1784L21.3217 27.8451C21.636 28.1487 22.057 28.3167 22.494 28.3129C22.931 28.3091 23.349 28.1338 23.6581 27.8248C23.9671 27.5158 24.1423 27.0977 24.1461 26.6608C24.1499 26.2238 23.982 25.8028 23.6784 25.4884L18.19 20.0001L23.6784 14.5117Z" fill="#ED9B04"/>
</svg>
