<svg width="17" height="18" viewBox="0 0 17 18" fill="none" xmlns="http://www.w3.org/2000/svg">
<g clip-path="url(#clip0_48_1369)">
<path d="M8.50003 0.386719C3.99333 0.386719 0.340027 4.09651 0.340027 8.67291C0.340027 13.2493 3.99333 16.9591 8.50003 16.9591C13.0067 16.9591 16.66 13.2493 16.66 8.67291C16.66 4.09651 13.0067 0.386719 8.50003 0.386719ZM6.50253 12.1074H4.85013V6.70753H6.50253V12.1074ZM5.66613 6.04463C5.14423 6.04463 4.80678 5.66916 4.80678 5.20479C4.80678 4.73092 5.15443 4.36668 5.68738 4.36668C6.22033 4.36668 6.54673 4.73092 6.55693 5.20479C6.55693 5.66916 6.22033 6.04463 5.66613 6.04463ZM12.5375 12.1074H10.8851V9.11484C10.8851 8.41828 10.6454 7.94527 10.0479 7.94527C9.59143 7.94527 9.32028 8.2655 9.20043 8.57364C9.15623 8.68326 9.14518 8.83863 9.14518 8.99313V12.1065H7.49193V8.4295C7.49193 7.75538 7.47068 7.19175 7.44858 6.70666H8.88423L8.95988 7.45674H8.99303C9.21063 7.10457 9.74358 6.58496 10.6352 6.58496C11.7224 6.58496 12.5375 7.32467 12.5375 8.91459V12.1074Z" fill="black"/>
</g>
<defs>
<clipPath id="clip0_48_1369">
<rect width="17" height="17.2629" fill="white" transform="translate(0 0.0415039)"/>
</clipPath>
</defs>
</svg>
