<svg width="184" height="57" viewBox="0 0 184 57" fill="none" xmlns="http://www.w3.org/2000/svg">
<path d="M135.6 30.44L134.84 41.4C134.813 41.6133 134.787 41.7733 134.76 41.88C134.76 41.96 134.64 42 134.4 42H132.2C130.707 42 129.64 41.7067 129 41.12C128.36 40.5333 128.04 39.6933 128.04 38.6C128.04 38.0667 128.08 37.16 128.16 35.88C128.24 34.5733 128.347 33.0933 128.48 31.44C128.613 29.7867 128.747 28.04 128.88 26.2C129.013 24.36 129.147 22.6267 129.28 21C129.413 19.3733 129.52 17.9467 129.6 16.72C129.68 15.4933 129.72 14.6533 129.72 14.2C129.72 13.8 129.933 13.6 130.36 13.6H144.44C144.6 13.6 144.747 13.64 144.88 13.72C145.013 13.8 145.08 13.9467 145.08 14.16L144.92 16.52C144.867 17.32 144.64 17.9733 144.24 18.48C143.867 18.96 143.08 19.2 141.88 19.2H136.36L135.96 24.84H141.64C141.8 24.84 141.947 24.88 142.08 24.96C142.213 25.04 142.28 25.1867 142.28 25.4L142.12 27.76C142.067 28.56 141.84 29.2133 141.44 29.72C141.067 30.2 140.28 30.44 139.08 30.44H135.6ZM150.755 42C149.261 42 148.195 41.7067 147.555 41.12C146.915 40.5333 146.595 39.6933 146.595 38.6C146.595 38.0667 146.635 37.16 146.715 35.88C146.795 34.5733 146.901 33.0933 147.035 31.44C147.168 29.7867 147.301 28.04 147.435 26.2C147.568 24.36 147.701 22.6267 147.835 21C147.968 19.3733 148.075 17.9467 148.155 16.72C148.235 15.4933 148.275 14.6533 148.275 14.2C148.275 13.8 148.488 13.6 148.915 13.6H151.115C152.741 13.6 153.835 13.9467 154.395 14.64C154.955 15.3333 155.235 16.36 155.235 17.72C155.235 17.8533 155.208 18.28 155.155 19C155.128 19.72 155.075 20.6267 154.995 21.72C154.915 22.8133 154.821 24.04 154.715 25.4C154.635 26.7333 154.541 28.1067 154.435 29.52C154.355 30.9333 154.261 32.32 154.155 33.68C154.075 35.0133 153.995 36.2267 153.915 37.32C153.835 38.4133 153.768 39.3333 153.715 40.08C153.661 40.8 153.621 41.24 153.595 41.4C153.568 41.6133 153.515 41.7733 153.435 41.88C153.355 41.96 153.195 42 152.955 42H150.755ZM172.133 19.2L170.613 41.4C170.586 41.8 170.44 42 170.173 42H167.973C166.48 42 165.413 41.7067 164.773 41.12C164.133 40.5333 163.813 39.6933 163.813 38.6C163.813 38.2 163.826 37.6 163.853 36.8C163.906 36 163.973 35.0667 164.053 34C164.133 32.9067 164.213 31.7333 164.293 30.48C164.4 29.2 164.506 27.92 164.613 26.64C164.72 25.3333 164.813 24.04 164.893 22.76C165 21.48 165.093 20.2933 165.173 19.2H158.773C158.48 19.2 158.333 19.0133 158.333 18.64L158.453 16.4C158.48 16.0533 158.533 15.72 158.613 15.4C158.72 15.0533 158.88 14.7467 159.093 14.48C159.306 14.2133 159.573 14 159.893 13.84C160.24 13.68 160.653 13.6 161.133 13.6H179.013C179.173 13.6 179.32 13.64 179.453 13.72C179.586 13.8 179.653 13.9467 179.653 14.16L179.493 16.52C179.44 17.32 179.213 17.9733 178.813 18.48C178.44 18.96 177.653 19.2 176.453 19.2H172.133Z" fill="#E39300"/>
<path d="M19.942 19.77V26.42H28.872V30.638H19.942V37.668H30.012V42H14.622V15.438H30.012V19.77H19.942ZM63.7646 15.476V42H58.4446V24.748L51.3386 42H47.3106L40.1666 24.748V42H34.8466V15.476H40.8886L49.3246 35.198L57.7606 15.476H63.7646ZM97.9423 15.476V42H92.6223V24.748L85.5163 42H81.4883L74.3443 24.748V42H69.0243V15.476H75.0663L83.5023 35.198L91.9383 15.476H97.9423ZM119.466 36.946H108.902L107.154 42H101.568L111.106 15.438H117.3L126.838 42H121.214L119.466 36.946ZM118.022 32.69L114.184 21.594L110.346 32.69H118.022Z" fill="#5B5240"/>
<path d="M182.987 29.8088C128.087 47.3743 14.8771 71.6042 1.23883 28" stroke="#ED9B04" stroke-width="2"/>
</svg>
