<svg width="298" height="332" viewBox="0 0 298 332" fill="none" xmlns="http://www.w3.org/2000/svg">
<path d="M21.9844 332C13.9844 332 8.48438 329.5 5.48438 324.5C2.48438 318.5 0.98438 311.5 0.98438 303.5V88.9999C0.98438 63.9999 5.48438 44.9999 14.4844 31.9999C24.4844 18.9999 35.9844 10.4999 48.9844 6.4999C62.9844 2.49995 75.4844 0.499981 86.4844 0.499981C93.4844 0.499981 98.9844 0.999974 102.984 1.99996C106.984 1.99996 110.984 2.49995 114.984 3.49994V45.4999C100.984 45.4999 91.4844 49 86.4844 56C82.4844 62 80.4844 70 80.4844 79.9999V155H92.4844C100.484 155 106.984 157.5 111.984 162.5C116.984 166.5 119.484 173.5 119.484 183.5V303.5C119.484 322.5 110.484 332 92.4844 332H21.9844ZM200.484 332C192.484 332 186.984 329.5 183.984 324.5C180.984 318.5 179.484 311.5 179.484 303.5V88.9999C179.484 63.9999 183.984 44.9999 192.984 31.9999C202.984 18.9999 214.484 10.4999 227.484 6.4999C241.484 2.49995 253.984 0.499981 264.984 0.499981C271.984 0.499981 277.484 0.999974 281.484 1.99996C285.484 1.99996 289.484 2.49995 293.484 3.49994V45.4999C279.484 45.4999 269.984 49 264.984 56C260.984 62 258.984 70 258.984 79.9999V155H270.984C278.984 155 285.484 157.5 290.484 162.5C295.484 166.5 297.984 173.5 297.984 183.5V303.5C297.984 322.5 288.984 332 270.984 332H200.484Z" fill="#ED9B04" fill-opacity="0.05"/>
</svg>
