<svg width="17" height="18" viewBox="0 0 17 18" fill="none" xmlns="http://www.w3.org/2000/svg">
<path d="M8.5 1.51758C4.39277 1.51758 1.0625 4.89935 1.0625 9.07009C1.0625 13.2408 4.39277 16.6226 8.5 16.6226C12.6072 16.6226 15.9375 13.2408 15.9375 9.07009C15.9375 4.89935 12.6072 1.51758 8.5 1.51758ZM12.0743 7.21062C12.0793 7.28986 12.0793 7.37246 12.0793 7.45338C12.0793 9.92818 10.2232 12.7789 6.83154 12.7789C5.78564 12.7789 4.81611 12.4704 3.99932 11.9394C4.14873 11.9562 4.2915 11.963 4.44424 11.963C5.30752 11.963 6.10107 11.6663 6.73359 11.1639C5.92344 11.147 5.24277 10.6076 5.01035 9.8658C5.29424 9.90795 5.5499 9.90795 5.84209 9.83209C5.42494 9.74603 5.04999 9.51596 4.78095 9.18099C4.5119 8.84602 4.36536 8.42679 4.36621 7.99453V7.97093C4.61025 8.11085 4.89746 8.19683 5.19795 8.20863C4.94534 8.03768 4.73818 7.80608 4.59483 7.53435C4.45148 7.26263 4.37638 6.95918 4.37617 6.65093C4.37617 6.30196 4.46582 5.98334 4.62686 5.70686C5.08988 6.28567 5.66766 6.75906 6.32265 7.09627C6.97763 7.43347 7.69517 7.62694 8.42861 7.66411C8.16797 6.39131 9.1043 5.36127 10.2299 5.36127C10.7611 5.36127 11.2393 5.58717 11.5763 5.95131C11.993 5.87207 12.3914 5.71361 12.7467 5.50119C12.6089 5.93445 12.32 6.30027 11.9365 6.53123C12.3084 6.49077 12.667 6.38625 12.999 6.23958C12.7483 6.61384 12.4346 6.94595 12.0743 7.21062Z" fill="black"/>
</svg>
