<svg width="17" height="18" viewBox="0 0 17 18" fill="none" xmlns="http://www.w3.org/2000/svg">
<g clip-path="url(#clip0_48_1373)">
<path d="M8.5 0.644043C3.808 0.644043 0 4.51093 0 9.27549C0 14.04 3.808 17.9069 8.5 17.9069C13.192 17.9069 17 14.04 17 9.27549C17 4.51093 13.192 0.644043 8.5 0.644043ZM8.5 14.3853C5.7205 14.3853 3.468 12.098 3.468 9.27549C3.468 6.453 5.7205 4.16567 8.5 4.16567C11.2795 4.16567 13.532 6.453 13.532 9.27549C13.532 12.098 11.2795 14.3853 8.5 14.3853ZM8.5 4.79577C6.069 4.79577 4.0885 6.80689 4.0885 9.27549C4.0885 11.7441 6.069 13.7552 8.5 13.7552C10.931 13.7552 12.9115 11.7441 12.9115 9.27549C12.9115 6.80689 10.931 4.79577 8.5 4.79577ZM6.8595 11.8218V6.72921L11.203 9.27549L6.8595 11.8218Z" fill="black"/>
</g>
<defs>
<clipPath id="clip0_48_1373">
<rect width="17" height="17.2629" fill="white" transform="translate(0 0.644043)"/>
</clipPath>
</defs>
</svg>
